<svg xmlns="http://www.w3.org/2000/svg" width="1082" height="357" style="shape-rendering:geometricPrecision;text-rendering:geometricPrecision;image-rendering:optimizeQuality;fill-rule:evenodd;clip-rule:evenodd" version="1.1"><g><path fill="#fff" d="M403.5-.5h17c20.561 1.944 38.895 9.444 55 22.5A443.836 443.836 0 0 1 455 50.5c-13.329-9.5-28.162-15.167-44.5-17-9.163-.34-15.997 3.327-20.5 11-1.852 8.128.981 13.962 8.5 17.5a1297.376 1297.376 0 0 0 48 15c31.263 13.377 41.096 36.211 29.5 68.5-6.966 14.239-18.133 23.406-33.5 27.5-29.756 6.915-57.756 2.581-84-13a77.626 77.626 0 0 1-14-11.5 333.966 333.966 0 0 1 22.5-27c14.667 12.495 31.667 19.495 51 21 6.141-.383 11.975-1.883 17.5-4.5 7.802-6.918 8.468-14.251 2-22a50.548 50.548 0 0 0-12-6 569.45 569.45 0 0 0-32-9c-37.971-10.771-50.471-34.938-37.5-72.5 6.005-11.004 14.838-18.837 26.5-23.5 6.94-2.547 13.94-4.38 21-5.5Z" style="opacity:.972"/></g><g><path fill="#fff" d="M233.5.5a338.4 338.4 0 0 1 36.5 1l72.5 171a267.196 267.196 0 0 1-40 .5 517.544 517.544 0 0 1-15-37.5c-24.009-.333-48.009 0-72 1l-15 36a267.196 267.196 0 0 1-40 .5A12970.195 12970.195 0 0 0 233.5.5Zm17 49c1.784 1.074 2.951 2.74 3.5 5a1359.434 1359.434 0 0 1 18.5 47c-14.337.167-28.671 0-43-.5a3423.868 3423.868 0 0 0 21-51.5Z" style="opacity:.977"/></g><g><path fill="#fff" d="M-.5 2.5h39v67h68v-67h39v171h-39v-68h-68v68h-39V2.5Z" style="opacity:.971"/></g><g><path fill="#fff" d="M501.5 2.5h38v67h68v-67h39v171h-39v-68h-68v68h-38V2.5Z" style="opacity:.984"/></g><g><path fill="#fff" d="M707.5 2.5c18.336-.167 36.67 0 55 .5a8987.889 8987.889 0 0 1-80 79.5 515.941 515.941 0 0 1-27-27l52-53Z" style="opacity:.975"/></g><g><path fill="#fff" d="M775.5 2.5h130v34h-92v34h81v34h-81v35h93v34h-131V2.5Z" style="opacity:.987"/></g><g><path fill="#fff" d="M1081.5 2.5v1a7749.378 7749.378 0 0 0-65.5 102c-.5 22.664-.67 45.331-.5 68h-38c.167-22.336 0-44.669-.5-67L911.5 3c15-.667 30-.667 45 0A6694.132 6694.132 0 0 1 997 69.5 6545.978 6545.978 0 0 1 1037.5 3c14.66-.5 29.33-.667 44-.5Z" style="opacity:.979"/></g><g><path fill="#fff" d="M681.5 94.5a2953.637 2953.637 0 0 1 80 78.5c-18 .667-36 .667-54 0l-52-52a970.789 970.789 0 0 0 26-26.5Z" style="opacity:.978"/></g><g><path fill="#fff" d="M815.5 236.5h23v19h-23v-19Z" style="opacity:.921"/></g><g><path fill="#fff" d="M974.5 236.5h22v99h-22v-99Z" style="opacity:.92"/></g><g><path fill="#fff" d="M599.5 239.5c13.693-1.627 26.693.54 39 6.5a51.446 51.446 0 0 1 9 8 93.166 93.166 0 0 1-13.5 15.5c-4.781-4.31-10.281-7.477-16.5-9.5-20.947-2.39-32.28 6.944-34 28 1.72 21.056 13.053 30.39 34 28 6.599-2.275 12.433-5.775 17.5-10.5l13 13c.667.667.667 1.333 0 2-13.246 13.97-29.413 19.136-48.5 15.5-24.582-6.459-37.582-22.459-39-48 1.898-25.372 14.898-41.539 39-48.5Z" style="opacity:.95"/></g><g><path fill="#fff" d="M501.5 244.5a516.956 516.956 0 0 1 43 42.5 1305.338 1305.338 0 0 1-42.5 43.5c-.5-28.665-.667-57.331-.5-86Z" style="opacity:.964"/></g><g><path fill="#fff" d="M853.5 244.5h21v18h17v18h-17a218.316 218.316 0 0 0 1.5 35c5.14 2.698 10.14 2.365 15-1 .809 6.249.642 12.416-.5 18.5-10.027 4.619-20.027 4.619-30 0-2.606-1.938-4.439-4.438-5.5-7.5a361.554 361.554 0 0 1-1.5-45h-8v-18h8v-18Z" style="opacity:.964"/></g><g><path fill="#fff" d="M681.5 261.5c13.287-1.564 24.454 2.436 33.5 12a31.941 31.941 0 0 1 4 12c.5 16.663.667 33.33.5 50h-21a18.453 18.453 0 0 0-.5-6c-10.266 7.436-21.433 8.936-33.5 4.5-11.575-7.77-14.742-18.27-9.5-31.5 6.882-8.916 16.048-12.916 27.5-12 5.756-.215 11.256.785 16.5 3 .306-6.203-2.527-10.369-8.5-12.5-9.026-1.322-17.693-.155-26 3.5a162.684 162.684 0 0 1-6-16.5c7.481-3.283 15.148-5.45 23-6.5Zm2 42c5.404-.086 10.571.914 15.5 3 .541 9.962-4.292 14.962-14.5 15-8.951-.419-12.117-4.753-9.5-13 2.398-2.608 5.231-4.275 8.5-5Z" style="opacity:.945"/></g><g><path fill="#fff" d="M752.5 356.5h-21v-94h21a40.914 40.914 0 0 0 .5 9c7.4-8.904 16.9-12.071 28.5-9.5 17.554 5.914 26.221 18.248 26 37-.925 25.93-14.259 38.263-40 37-5.826-1.163-10.659-3.997-14.5-8.5-.5 9.661-.666 19.328-.5 29Zm13-77c12.889.053 19.889 6.553 21 19.5-2.506 16.901-11.506 22.234-27 16-6.942-6.959-8.776-15.126-5.5-24.5 2.437-5.274 6.271-8.94 11.5-11Z" style="opacity:.959"/></g><g><path fill="#fff" d="M924.5 261.5c10.925-.945 20.925 1.555 30 7.5 3.963 4.427 6.463 9.594 7.5 15.5.5 16.997.667 33.997.5 51h-20a24.935 24.935 0 0 0-.5-7c-10.315 8.449-21.815 10.282-34.5 5.5-13.068-9.78-15.234-21.614-6.5-35.5 7.033-5.955 15.199-8.622 24.5-8 5.756-.215 11.256.785 16.5 3 .287-6.252-2.546-10.419-8.5-12.5-8.883-1.344-17.383-.177-25.5 3.5-2.894-5.345-4.561-11.011-5-17 6.988-3.036 14.154-5.036 21.5-6Zm2 42c5.451-.341 10.618.659 15.5 3 .558 9.946-4.275 14.946-14.5 15-8.896-.374-12.063-4.707-9.5-13 2.398-2.608 5.231-4.275 8.5-5Z" style="opacity:.948"/></g><g><path fill="#fff" d="M816.5 262.5h21v73h-21v-73Z" style="opacity:.971"/></g></svg>